#!OML:ASF F:\VICON\USERDATA\INSTALL\rory3\rory3.ASF
:FULLY-SPECIFIED
:DEGREES
10
root -0.4516859999999993 18.6068 -15.284000000000027 4.085 7.515459999999995 -2.6666299999999983
lfemur -36.211399999999955 -7.748910000000012 -18.17920000000001
ltibia 38.420399999999965
lfoot -0.5445940000000076 -8.333419999999998
ltoes -23.3925
rfemur 14.074399999999983 4.396649999999999 33.8808
rtibia 31.70550000000001
rfoot 26.6563 -6.705840000000001
rtoes 10.414099999999987
lowerback 1.0 1.7260100000000023 5.261070000000001
upperback -1.9035900000000021 3.195269999999998 1.3000799999999997
thorax -8.446509999999998 1.3264300000000013 -2.173429999999999
lowerneck -16.284399999999998 -6.2651300000000045 -1.9274700000000007
upperneck 16.87620000000001 -8.384640000000005 1.374980000000001
head 8.043549999999998 -3.9605899999999985 -0.20876400000000195
lclavicle 5.138580000000007e-14 -1.1131899999999993e-14
lhumerus -70.1035 -6.116350000000002 96.3995
lradius 104.529
lwrist 31.2807
lhand -38.103999999999985 4.02428999999999
lfingers 7.12502
lthumb -11.139599999999984 33.70859999999999
rclavicle 5.138580000000007e-14 -1.1131899999999993e-14
rhumerus -46.300200000000004 15.521699999999996 -98.8658
rradius 126.04500000000002
rwrist -17.5334
rhand -15.419400000000005 1.0
rfingers 7.12502
rthumb 10.7602 23.305400000000013
11
root -0.44987699999999997 18.6755 -14.73320000000001 3.9579300000000006 7.250950000000007 -2.8501
lfemur -34.98000000000002 -7.2749400000000035 -18.204499999999992
ltibia 33.354900000000036
lfoot 0.2794179999999975 -10.2173
ltoes -20.4535
rfemur 14.56119999999996 5.389470000000006 34.363400000000006
rtibia 33.18480000000004
rfoot 27.85429999999999 -6.386020000000001
rtoes 17.853100000000026
lowerback 1.0 1.9342000000000017 5.360779999999991
upperback -1.9644099999999969 3.500770000000007 1.3295499999999998
thorax -8.54903 1.465759999999998 -2.25909
lowerneck -16.643700000000003 -6.35201 -2.1108299999999995
upperneck 17.26049999999999 -8.4811 1.4573099999999977
head 8.249290000000002 -3.9997400000000036 -0.18452100000000005
lclavicle -1.5405799999999946e-15 1.7095499999999972e-14
lhumerus -70.83959999999999 -5.57099 95.9978
lradius 105.151
lwrist 31.504299999999997
lhand -38.16399999999999 4.977920000000008
lfingers 7.12502
lthumb -11.197399999999995 34.659099999999995
rclavicle -1.5405799999999946e-15 1.7095499999999972e-14
rhumerus -47.16510000000001 16.696200000000005 -99.9812
rradius 126.17699999999999
rwrist -15.715700000000002
rhand -19.3479 1.0
rfingers 7.12502
rthumb 6.96931 18.23219999999997
12
root -0.4415359999999999 18.7315 -14.186000000000007 4.02928 6.938060000000008 -2.89194
lfemur -34.23559999999998 -6.744979999999987 -18.425100000000004
ltibia 28.789300000000033
lfoot 1.8230800000000031 -11.446699999999998
ltoes -16.176400000000005
rfemur 14.583700000000025 6.309240000000001 34.5703
rtibia 35.221799999999945
rfoot 27.138200000000012 -5.581780000000001
rtoes 21.8326
lowerback 1.0 2.121529999999999 5.396029999999996
upperback -2.21093 3.7731700000000012 1.25185
thorax -8.881809999999998 1.5781799999999995 -2.4253599999999973
lowerneck -17.011800000000004 -6.388640000000003 -2.1145
upperneck 17.81179999999999 -8.531190000000006 1.403120000000003
head 8.498749999999996 -4.0168599999999985 -0.23150900000000063
lclavicle -2.266150000000004e-14 -2.4251699999999982e-14
lhumerus -71.7826 -5.097329999999987 95.5485
lradius 105.91500000000002
lwrist 31.6986
lhand -35.46319999999999 3.5357099999999972
lfingers 7.12502
lthumb -8.591800000000008 33.3409
rclavicle -2.266150000000004e-14 -2.4251699999999982e-14
rhumerus -48.075 17.12600000000001 -100.704
rradius 126.36299999999997
rwrist -17.2821
rhand -18.7436 1.0
rfingers 7.12502
rthumb 7.55263 16.635599999999982
13
root -0.43609000000000026 18.7523 -13.648199999999964 4.195429999999998 6.704670000000008 -2.9021400000000006
lfemur -33.18120000000003 -6.0374399999999975 -18.793100000000003
ltibia 25.10199999999999
lfoot 2.539290000000001 -12.249700000000006
ltoes -13.808700000000005
rfemur 14.2595 6.972589999999997 34.69210000000002
rtibia 37.83299999999999
rfoot 26.14879999999998 -4.507809999999997
rtoes 24.068800000000046
lowerback 1.0 2.266580000000001 5.322199999999996
upperback -2.391140000000001 3.951630000000004 1.1981999999999997
thorax -8.99507 1.6603299999999985 -2.472690000000002
lowerneck -17.0817 -6.388080000000006 -1.92941
upperneck 17.964099999999995 -8.541550000000003 1.210150000000001
head 8.544910000000003 -4.026890000000001 -0.3310479999999998
lclavicle -6.535049999999995e-14 -2.703469999999999e-14
lhumerus -72.43940000000003 -4.604650000000003 95.1974
lradius 106.49
lwrist 31.5761
lhand -33.201 2.467959999999997
lfingers 7.12502
lthumb -6.4082599999999985 32.351000000000006
rclavicle -6.535049999999995e-14 -2.703469999999999e-14
rhumerus -48.7661 17.618 -101.409
rradius 126.46199999999997
rwrist -18.350299999999997
rhand -19.2981 1.0
rfingers 7.12502
rthumb 7.017429999999999 11.754299999999995
14
root -0.4318910000000006 18.7709 -13.11030000000001 4.29731 6.06294000000001 -3.0899899999999993
lfemur -32.22680000000001 -5.1451800000000105 -18.924200000000003
ltibia 22.042199999999973
lfoot 3.09424 -12.232400000000002
ltoes -13.823699999999999
rfemur 13.77759999999994 7.795889999999999 34.839100000000016
rtibia 40.93020000000001
rfoot 26.830400000000022 -3.908270000000005
rtoes 24.258199999999967
lowerback 1.0 2.5373 5.234900000000006
upperback -2.2467500000000014 4.269650000000007 1.28343
thorax -8.57375 1.838799999999998 -2.361249999999997
lowerneck -17.321900000000007 -6.3722099999999955 -1.8631899999999995
upperneck 17.8104 -8.504260000000006 1.103149999999999
head 8.526260000000002 -4.015799999999999 -0.3770459999999983
lclavicle -2.658739999999993e-14 1.5902800000000003e-15
lhumerus -72.46519999999995 -4.051070000000015 95.0125
lradius 106.94100000000002
lwrist 31.374900000000004
lhand -31.7582 1.8618200000000036
lfingers 7.12502
lthumb -5.01523 31.782499999999995
rclavicle -2.658739999999993e-14 1.5902800000000003e-15
rhumerus -48.7878 18.243299999999998 -101.73
rradius 126.362
rwrist -18.952100000000016
rhand -20.1889 1.0
rfingers 7.12502
rthumb 6.157450000000001 8.785849999999996
15
root -0.4250819999999998 18.761 -12.583599999999986 4.207720000000001 5.482969999999991 -3.471669999999998
lfemur -31.680200000000006 -4.377499999999995 -18.832399999999993
ltibia 20.28069999999998
lfoot 3.4412100000000008 -11.528199999999998
ltoes -14.275400000000001
rfemur 13.229499999999984 8.299509999999987 35.096900000000005
rtibia 44.398100000000014
rfoot 26.5724 -4.250220000000002
rtoes 25.378199999999982
lowerback 1.0 2.7225300000000043 5.464620000000003
upperback -1.9460799999999985 4.527939999999999 1.3683899999999998
thorax -8.115440000000001 1.9757600000000035 -2.422350000000008
lowerneck -17.9492 -6.344369999999997 -1.835
upperneck 17.6021 -8.470540000000002 1.17663
head 8.56783 -3.9858000000000002 -0.3697070000000017
lclavicle -1.4362200000000025e-14 -2.0673600000000038e-14
lhumerus -72.15069999999999 -3.61324000000001 94.8349
lradius 107.379
lwrist 31.3489
lhand -30.9235 1.8369099999999978
lfingers 7.12502
lthumb -4.20924 31.775099999999995
rclavicle -1.4362200000000025e-14 -2.0673600000000038e-14
rhumerus -48.472 18.95129999999999 -102.072
rradius 126.019
rwrist -20.06090000000001
rhand -20.288 1.0
rfingers 7.12502
rthumb 6.061760000000001 8.207330000000002
